#!OML:ASF F:\VICON\USERDATA\INSTALL\rory3\rory3.ASF
:FULLY-SPECIFIED
:DEGREES
735
root -0.637983 18.2362 2.7363 -177.737 73.7232 186.536
lowerback 12.5227 0.500102 0.049333
upperback 0.412095 0.729575 0.226654
thorax -6.59965 0.376779 0.077809
lowerneck -19.7926 -8.46259 -14.3641
upperneck 27.4314 -10.5574 11.5992
head 14.1599 -4.45044 5.17465
rclavicle -1.36727e-014 9.14409e-015
rhumerus -34.3841 -5.8456 -84.603
rradius 33.0719
rwrist 3.82344
rhand -12.3813 9.03162
rfingers 7.12502
rthumb 13.6895 -20.4981
lclavicle -1.36727e-014 9.14409e-015
lhumerus -37.4763 5.3695 81.6049
lradius 38.5998
lwrist -3.2146
lhand -18.9404 24.6983
lfingers 7.12502
lthumb 7.36266 54.5502
rfemur 0.303874 -2.85168 22.9964
rtibia 15.4232
rfoot -8.42851 -5.55957
rtoes 9.24976
lfemur -8.16793 1.49027 -16.3031
ltibia 34.1625
lfoot -10.4202 7.26703
ltoes -5.07313
736
root -0.637121 18.2352 2.73115 -177.542 74.3289 186.694
lowerback 12.4722 0.595175 0.204516
upperback 0.37733 0.875263 0.206659
thorax -6.60592 0.442218 -0.0566594
lowerneck -19.6554 -8.48594 -14.4485
upperneck 27.3801 -10.5993 11.6666
head 14.1266 -4.4736 5.20894
rclavicle -3.64894e-014 -9.93923e-016
rhumerus -34.4939 -5.69571 -84.5811
rradius 33.1535
rwrist 3.81436
rhand -12.238 9.2638
rfingers 7.12502
rthumb 13.8276 -20.2566
lclavicle -3.64894e-014 -9.93923e-016
lhumerus -37.5433 5.39258 81.6945
lradius 38.5101
lwrist -3.43255
lhand -18.6302 24.9028
lfingers 7.12502
lthumb 7.66214 54.744
rfemur -0.038082 -2.60015 22.9831
rtibia 15.9217
rfoot -8.58797 -5.19379
rtoes 7.99424
lfemur -8.08531 0.792127 -16.322
ltibia 33.6707
lfoot -11.1685 5.21037
ltoes -6.24615
737
root -0.633609 18.2266 2.72771 -178.173 74.8761 186.092
lowerback 12.4934 0.692237 0.109982
upperback 0.361295 0.987131 0.162592
thorax -6.63546 0.498777 -0.0701986
lowerneck -19.3459 -8.5009 -14.7257
upperneck 27.1974 -10.653 11.9752
head 14.034 -4.49762 5.37305
rclavicle 4.06887e-014 -5.96354e-015
rhumerus -34.5884 -6.13202 -84.246
rradius 33.0738
rwrist 5.05042
rhand -12.2695 9.76947
rfingers 7.12502
rthumb 13.7973 -19.753
lclavicle 4.06887e-014 -5.96354e-015
lhumerus -37.6686 5.3099 81.8506
lradius 38.4169
lwrist -3.55876
lhand -18.65 25.0118
lfingers 7.12502
lthumb 7.64298 54.8536
rfemur -0.257681 -2.52338 22.7412
rtibia 16.3703
rfoot -8.83727 -4.8403
rtoes 8.28499
lfemur -7.91376 0.192617 -16.577
ltibia 33.1481
lfoot -11.9368 2.99848
ltoes -8.87112
738
root -0.636663 18.2162 2.72695 -179.351 75.457 184.936
lowerback 12.6192 0.812 -0.167019
upperback 0.334802 1.09959 0.0693537
thorax -6.73756 0.560555 -0.0345937
lowerneck -18.9308 -8.48554 -14.9665
upperneck 26.8488 -10.7101 12.3837
head 13.8539 -4.51199 5.56596
rclavicle 6.09523e-014 -5.56597e-015
rhumerus -34.6209 -6.68356 -83.9473
rradius 32.968
rwrist 6.32887
rhand -12.5128 9.92101
rfingers 7.12502
rthumb 13.5628 -19.6172
lclavicle 6.09523e-014 -5.56597e-015
lhumerus -37.7667 5.25191 81.9384
lradius 38.287
lwrist -3.582
lhand -18.5955 24.6352
lfingers 7.12502
lthumb 7.6956 54.4752
rfemur -0.408302 -2.11028 22.4126
rtibia 16.6299
rfoot -9.01698 -4.83301
rtoes 10.1407
lfemur -7.78515 -0.371297 -17.0067
ltibia 32.6156
lfoot -12.7862 0.924064
ltoes -12.2408
739
root -0.640218 18.213 2.72391 -179.153 76.0724 185.103
lowerback 12.6103 0.959052 -0.043053
upperback 0.308867 1.30764 0.00607598
thorax -6.75634 0.656698 -0.20927
lowerneck -18.5808 -8.47903 -14.8147
upperneck 26.4995 -10.7942 12.4476
head 13.6396 -4.5393 5.53863
rclavicle -2.00773e-014 4.37326e-015
rhumerus -34.6186 -6.99802 -83.9713
rradius 32.9482
rwrist 6.39906
rhand -12.9778 9.44463
rfingers 7.12502
rthumb 13.1146 -20.123
lclavicle -2.00773e-014 4.37326e-015
lhumerus -37.7595 5.03935 82.0114
lradius 38.1444
lwrist -3.62423
lhand -18.6061 24.5266
lfingers 7.12502
lthumb 7.68536 54.3669
rfemur -0.531503 -1.54159 22.4723
rtibia 16.677
rfoot -9.05343 -4.90729
rtoes 11.3338
lfemur -7.80289 -0.896425 -17.0449
ltibia 32.1478
lfoot -13.6829 -1.33716
ltoes -13.0478
740
root -0.633856 18.2167 2.71443 -177.726 76.7019 186.485
lowerback 12.3954 1.07691 0.472792
upperback 0.31711 1.53418 -0.0316292
thorax -6.61185 0.750694 -0.576077
lowerneck -18.4926 -8.49644 -14.6039
upperneck 26.4566 -10.877 12.3827
head 13.5972 -4.56437 5.45843
rclavicle 2.05059e-014 -8.54774e-015
rhumerus -34.6023 -7.25773 -84.0663
rradius 32.9427
rwrist 6.16434
rhand -13.3483 9.02264
rfingers 7.12502
rthumb 12.7575 -20.5676
lclavicle 2.05059e-014 -8.54774e-015
lhumerus -37.7337 4.7227 82.0972
lradius 38.0117
lwrist -3.62838
lhand -18.601 24.5031
lfingers 7.12502
lthumb 7.69029 54.3432
rfemur -0.584253 -1.27561 22.7719
rtibia 16.569
rfoot -9.01998 -4.62777
rtoes 10.863
lfemur -7.84879 -1.45473 -16.7712
ltibia 31.7381
lfoot -14.4226 -3.96373
ltoes -10.8669
741
root -0.631883 18.2167 2.70297 -174.327 77.3049 189.658
lowerback 12.066 1.08639 1.29886
upperback 0.232587 1.66233 0.0505185
thorax -6.49431 0.78819 -0.970939
lowerneck -18.6961 -8.45383 -14.2811
upperneck 26.7126 -10.8523 12.1901
head 13.7062 -4.53368 5.33656
rclavicle -5.03049e-014 -3.97569e-016
rhumerus -34.6129 -7.25056 -84.18
rradius 32.9966
rwrist 6.24063
rhand -13.5054 9.05689
rfingers 7.12502
rthumb 12.606 -20.5427
lclavicle -5.03049e-014 -3.97569e-016
lhumerus -37.8181 4.67459 82.0538
lradius 37.938
lwrist -3.54282
lhand -18.3067 24.5095
lfingers 7.12502
lthumb 7.9743 54.3391
rfemur -0.841621 -1.04815 23.4632
rtibia 16.3341
rfoot -8.85052 -4.29499
rtoes 9.93777
lfemur -8.16964 -1.8898 -16.0892
ltibia 31.3461
lfoot -14.8707 -6.62081
ltoes -8.97575
742
root -0.629556 18.2077 2.69169 -171.751 77.8241 192.032
lowerback 11.8609 1.05317 1.74548
upperback 0.129227 1.6809 0.146534
thorax -6.47859 0.783311 -1.12105
lowerneck -19.045 -8.374 -13.8282
upperneck 27.129 -10.7597 11.8355
head 13.8824 -4.47352 5.14283
rclavicle 3.37375e-014 2.38542e-015
rhumerus -34.6439 -7.08159 -84.3684
rradius 33.1355
rwrist 6.07857
rhand -13.9136 9.1407
rfingers 7.12502
rthumb 12.2125 -20.4828
lclavicle 3.37375e-014 2.38542e-015
lhumerus -37.9975 4.77322 81.9623
lradius 37.8984
lwrist -3.49681
lhand -18.2056 24.6375
lfingers 7.12502
lthumb 8.0719 54.4633
rfemur -1.07372 -0.904772 23.8964
rtibia 16.1841
rfoot -8.77076 -4.01616
rtoes 9.73253
lfemur -8.40113 -2.08978 -15.7104
ltibia 30.8056
lfoot -15.2382 -8.72888
ltoes -9.19006
743
root -0.619402 18.1995 2.6776 -170.821 78.3391 192.868
lowerback 11.6852 1.07916 1.88038
upperback 0.0850972 1.7295 0.155865
thorax -6.42139 0.802821 -1.19156
lowerneck -19.1264 -8.32656 -13.5206
upperneck 27.2721 -10.7145 11.5855
head 13.9124 -4.44874 4.99978
rclavicle -3.10601e-015 3.97569e-015
rhumerus -34.5914 -7.15735 -84.4514
rradius 33.1578
rwrist 5.66099
rhand -14.2726 8.76118
rfingers 7.12502
rthumb 11.8662 -20.8826
lclavicle -3.10601e-015 3.97569e-015
lhumerus -38.1346 4.77366 81.9928
lradius 37.7859
lwrist -3.67271
lhand -18.2919 24.8041
lfingers 7.12502
lthumb 7.98864 54.6331
rfemur -1.14732 -0.889026 23.9088
rtibia 16.1039
rfoot -8.71449 -3.64243
rtoes 9.77465
lfemur -8.39628 -2.35236 -15.7952
ltibia 30.1288
lfoot -15.4399 -10.4462
ltoes -8.35665
744
root -0.60645 18.193 2.66303 -172.264 78.8899 191.375
lowerback 11.5554 1.15679 1.61393
upperback 0.0810364 1.78471 0.033232
thorax -6.35465 0.836525 -1.17619
lowerneck -19.0573 -8.31653 -13.4673
upperneck 27.284 -10.722 11.5706
head 13.8989 -4.44994 4.98492
rclavicle 2.70658e-014 5.96354e-016
rhumerus -34.618 -7.26148 -84.4467
rradius 33.3066
rwrist 5.10097
rhand -14.3894 7.86976
rfingers 7.12502
rthumb 11.7536 -21.7805
lclavicle 2.70658e-014 5.96354e-016
lhumerus -38.2259 4.56953 82.1521
lradius 37.657
lwrist -3.73113
lhand -18.2094 24.7662
lfingers 7.12502
lthumb 8.06824 54.5922
rfemur -1.23517 -0.799592 23.402
rtibia 16.2782
rfoot -8.86483 -3.36824
rtoes 11.4997
lfemur -8.20134 -2.70223 -16.4536
ltibia 29.2367
lfoot -15.6142 -11.7191
ltoes -7.92453
745
root -0.586942 18.1776 2.65337 -171.038 79.1982 193.125
lowerback 11.8704 1.10756 1.9301
upperback 0.258732 1.77999 0.154462
thorax -6.33836 0.830014 -1.23187
lowerneck -19.1705 -8.30456 -13.4367
upperneck 27.3956 -10.6834 11.4843
head 13.9559 -4.43686 4.95402
rclavicle -2.69043e-014 9.93923e-016
rhumerus -34.6094 -7.40119 -84.3378
rradius 33.4821
rwrist 5.0278
rhand -14.2686 7.56848
rfingers 7.12502
rthumb 11.8701 -22.0751
lclavicle -2.69043e-014 9.93923e-016
lhumerus -38.2766 4.39826 82.3787
lradius 37.5256
lwrist -3.64339
lhand -18.0576 24.6432
lfingers 7.12502
lthumb 8.21472 54.4635
rfemur -0.79057 -0.677339 23.6893
rtibia 16.5885
rfoot -9.24348 -3.37724
rtoes 12.2461
lfemur -7.38328 -3.08125 -16.3845
ltibia 28.1782
lfoot -15.9284 -12.6408
ltoes -9.08972
